<svg width="172" height="37" viewBox="0 0 172 37" fill="none" xmlns="http://www.w3.org/2000/svg">
<g clip-path="url(#clip0_61_25)">
<path d="M24 8.5C24.6 8.5 25 8.1 25 7.5C25 6.9 24.6 6.5 24 6.5H20.9C20.4 4.2 18.4 2.5 16 2.5C13.6 2.5 11.6 4.2 11.1 6.5H8C7.4 6.5 7 6.9 7 7.5C7 8.1 7.4 8.5 8 8.5H11.1C11.2 9 11.4 9.5 11.6 9.9C8.9 10.9 7 13.5 7 16.5V29.5C7 30.1 7.4 30.5 8 30.5H12C12 32.7 13.8 34.5 16 34.5C18.2 34.5 20 32.7 20 30.5H24C24.6 30.5 25 30.1 25 29.5V16.5C25 13.5 23.1 10.9 20.4 9.9C20.6 9.5 20.8 9 20.9 8.5H24ZM16 4.5C17.7 4.5 19 5.8 19 7.5C19 9.2 17.7 10.5 16 10.5C14.3 10.5 13 9.2 13 7.5C13 5.8 14.3 4.5 16 4.5ZM18 30.5C18 31.6 17.1 32.5 16 32.5C14.9 32.5 14 31.6 14 30.5V24.5C14 23.4 14.9 22.5 16 22.5C17.1 22.5 18 23.4 18 24.5V30.5Z" fill="white"/>
</g>
<path d="M54.8828 7.67383H59.4971V21.8389C59.4971 23.4307 59.1162 24.8271 58.3545 26.0283C57.6025 27.2197 56.5479 28.1475 55.1904 28.8115C53.833 29.4756 52.251 29.8076 50.4443 29.8076C48.6377 29.8076 47.0557 29.4756 45.6982 28.8115C44.3408 28.1475 43.2861 27.2197 42.5342 26.0283C41.7822 24.8271 41.4062 23.4307 41.4062 21.8389V7.67383H46.0059V21.458C46.0059 22.2881 46.1914 23.0303 46.5625 23.6846C46.9336 24.3291 47.4512 24.8369 48.1152 25.208C48.7793 25.5693 49.5557 25.75 50.4443 25.75C51.3428 25.75 52.124 25.5693 52.7881 25.208C53.4521 24.8369 53.9648 24.3291 54.3262 23.6846C54.6973 23.0303 54.8828 22.2881 54.8828 21.458V7.67383ZM75.8447 17.7959L71.6992 18.0449C71.5918 17.5273 71.3037 17.083 70.835 16.7119C70.3662 16.3311 69.7363 16.1406 68.9453 16.1406C68.2422 16.1406 67.6514 16.2871 67.1729 16.5801C66.7041 16.873 66.4697 17.2637 66.4697 17.752C66.4697 18.1426 66.6211 18.4795 66.9238 18.7627C67.2363 19.0361 67.7686 19.251 68.5205 19.4072L71.4941 19.9932C73.0859 20.3154 74.2725 20.8379 75.0537 21.5605C75.835 22.2832 76.2256 23.2354 76.2256 24.417C76.2256 25.501 75.9131 26.4482 75.2881 27.2588C74.6631 28.0596 73.8037 28.6895 72.71 29.1484C71.6162 29.5977 70.3613 29.8223 68.9453 29.8223C66.7773 29.8223 65.0488 29.3682 63.7598 28.46C62.4805 27.5518 61.7334 26.3213 61.5186 24.7686L65.957 24.5342C66.1035 25.1982 66.4355 25.7012 66.9531 26.043C67.4707 26.3848 68.1348 26.5557 68.9453 26.5557C69.7363 26.5557 70.376 26.3994 70.8643 26.0869C71.3623 25.7744 71.6113 25.3789 71.6113 24.9004C71.6113 24.0898 70.9082 23.543 69.502 23.2598L66.6748 22.6738C65.083 22.3516 63.8965 21.7998 63.1152 21.0186C62.334 20.2373 61.9434 19.2363 61.9434 18.0156C61.9434 16.9609 62.2314 16.0527 62.8076 15.291C63.3838 14.5293 64.1895 13.9434 65.2246 13.5332C66.2695 13.123 67.4902 12.918 68.8867 12.918C70.957 12.918 72.583 13.3574 73.7646 14.2363C74.9561 15.1055 75.6494 16.292 75.8447 17.7959ZM85.5859 29.8223C83.9062 29.8223 82.4561 29.4805 81.2354 28.7969C80.0146 28.1133 79.0771 27.1416 78.4229 25.8818C77.7783 24.6123 77.4561 23.1133 77.4561 21.3848C77.4561 19.7051 77.7783 18.2305 78.4229 16.9609C79.0771 15.6914 79.9951 14.7002 81.1768 13.9873C82.3682 13.2744 83.7646 12.918 85.3662 12.918C86.4502 12.918 87.4609 13.0938 88.3984 13.4453C89.3359 13.7871 90.1562 14.3047 90.8594 14.998C91.5625 15.6816 92.1094 16.5459 92.5 17.5908C92.8906 18.626 93.0859 19.8418 93.0859 21.2383V22.4688H79.2578V19.6709H90.8887L88.7793 20.4033C88.7793 19.5732 88.6523 18.8506 88.3984 18.2354C88.1445 17.6201 87.7637 17.1465 87.2559 16.8145C86.7578 16.4727 86.1377 16.3018 85.3955 16.3018C84.6533 16.3018 84.0234 16.4727 83.5059 16.8145C82.998 17.1562 82.6074 17.6201 82.334 18.2061C82.0605 18.792 81.9238 19.4658 81.9238 20.2275V22.2051C81.9238 23.0938 82.0801 23.8555 82.3926 24.4902C82.7051 25.1152 83.1396 25.5986 83.6963 25.9404C84.2627 26.2725 84.9121 26.4385 85.6445 26.4385C86.1523 26.4385 86.6113 26.3652 87.0215 26.2188C87.4316 26.0723 87.7832 25.8574 88.0762 25.5742C88.3789 25.291 88.6035 24.9492 88.75 24.5488L92.9395 24.8271C92.7344 25.833 92.3047 26.7119 91.6504 27.4639C91.0059 28.2061 90.1709 28.7871 89.1455 29.207C88.1201 29.6172 86.9336 29.8223 85.5859 29.8223ZM95.1074 7.67383H100.806L106.812 22.3369H107.061L113.081 7.67383H118.794V29.5H114.282V15.291H114.106L108.438 29.3975H105.391L99.7656 15.2617H99.5898V29.5H95.1074V7.67383ZM128.916 29.8223C127.266 29.8223 125.835 29.4707 124.624 28.7676C123.423 28.0547 122.495 27.0684 121.841 25.8086C121.196 24.5391 120.874 23.0645 120.874 21.3848C120.874 19.6855 121.196 18.2061 121.841 16.9463C122.495 15.6768 123.423 14.6904 124.624 13.9873C125.835 13.2744 127.266 12.918 128.916 12.918C130.576 12.918 132.007 13.2744 133.208 13.9873C134.419 14.6904 135.347 15.6768 135.991 16.9463C136.646 18.2061 136.973 19.6855 136.973 21.3848C136.973 23.0645 136.646 24.5391 135.991 25.8086C135.347 27.0684 134.419 28.0547 133.208 28.7676C132.007 29.4707 130.576 29.8223 128.916 29.8223ZM128.945 26.2773C129.697 26.2773 130.327 26.0674 130.835 25.6475C131.343 25.2178 131.724 24.6318 131.978 23.8896C132.241 23.1475 132.373 22.3027 132.373 21.3555C132.373 20.3984 132.241 19.5537 131.978 18.8213C131.724 18.0889 131.343 17.5127 130.835 17.0928C130.327 16.6729 129.697 16.4629 128.945 16.4629C128.184 16.4629 127.544 16.6729 127.026 17.0928C126.519 17.5127 126.133 18.0889 125.869 18.8213C125.615 19.5537 125.488 20.3984 125.488 21.3555C125.488 22.3027 125.615 23.1475 125.869 23.8896C126.133 24.6318 126.519 25.2178 127.026 25.6475C127.544 26.0674 128.184 26.2773 128.945 26.2773ZM144.956 29.7637C143.706 29.7637 142.578 29.4414 141.572 28.7969C140.566 28.1523 139.771 27.2051 139.185 25.9551C138.599 24.6953 138.306 23.1572 138.306 21.3408C138.306 19.4658 138.608 17.9033 139.214 16.6533C139.819 15.4033 140.625 14.4707 141.631 13.8555C142.637 13.2305 143.735 12.918 144.927 12.918C145.845 12.918 146.611 13.0742 147.227 13.3867C147.842 13.6895 148.34 14.0703 148.721 14.5293C149.102 14.9883 149.39 15.4424 149.585 15.8916H149.717V7.67383H154.258V29.5H149.79V26.8779H149.585C149.38 27.3271 149.082 27.7764 148.691 28.2256C148.301 28.665 147.798 29.0312 147.183 29.3242C146.577 29.6172 145.835 29.7637 144.956 29.7637ZM146.377 26.1602C147.109 26.1602 147.729 25.96 148.237 25.5596C148.755 25.1494 149.146 24.583 149.409 23.8604C149.683 23.1377 149.819 22.293 149.819 21.3262C149.819 20.3496 149.688 19.5049 149.424 18.792C149.16 18.0693 148.77 17.5127 148.252 17.1221C147.734 16.7217 147.109 16.5215 146.377 16.5215C145.635 16.5215 145.01 16.7266 144.502 17.1367C143.994 17.5469 143.608 18.1133 143.345 18.8359C143.081 19.5488 142.949 20.3789 142.949 21.3262C142.949 22.2734 143.081 23.1133 143.345 23.8457C143.608 24.5684 143.994 25.1348 144.502 25.5449C145.02 25.9551 145.645 26.1602 146.377 26.1602ZM170.503 17.7959L166.357 18.0449C166.25 17.5273 165.962 17.083 165.493 16.7119C165.024 16.3311 164.395 16.1406 163.604 16.1406C162.9 16.1406 162.31 16.2871 161.831 16.5801C161.362 16.873 161.128 17.2637 161.128 17.752C161.128 18.1426 161.279 18.4795 161.582 18.7627C161.895 19.0361 162.427 19.251 163.179 19.4072L166.152 19.9932C167.744 20.3154 168.931 20.8379 169.712 21.5605C170.493 22.2832 170.884 23.2354 170.884 24.417C170.884 25.501 170.571 26.4482 169.946 27.2588C169.321 28.0596 168.462 28.6895 167.368 29.1484C166.274 29.5977 165.02 29.8223 163.604 29.8223C161.436 29.8223 159.707 29.3682 158.418 28.46C157.139 27.5518 156.392 26.3213 156.177 24.7686L160.615 24.5342C160.762 25.1982 161.094 25.7012 161.611 26.043C162.129 26.3848 162.793 26.5557 163.604 26.5557C164.395 26.5557 165.034 26.3994 165.522 26.0869C166.021 25.7744 166.27 25.3789 166.27 24.9004C166.27 24.0898 165.566 23.543 164.16 23.2598L161.333 22.6738C159.741 22.3516 158.555 21.7998 157.773 21.0186C156.992 20.2373 156.602 19.2363 156.602 18.0156C156.602 16.9609 156.89 16.0527 157.466 15.291C158.042 14.5293 158.848 13.9434 159.883 13.5332C160.928 13.123 162.148 12.918 163.545 12.918C165.615 12.918 167.241 13.3574 168.423 14.2363C169.614 15.1055 170.308 16.292 170.503 17.7959Z" fill="white"/>
<defs>
<clipPath id="clip0_61_25">
<rect width="32" height="32" fill="white" transform="translate(0 2.5)"/>
</clipPath>
</defs>
</svg>
